<svg width="24" height="24" viewBox="0 0 24 24" fill="none" xmlns="http://www.w3.org/2000/svg">
<path d="M20.9469 8.30496C20.9359 7.54796 20.7959 6.79696 20.5279 6.08896C20.0589 4.87996 19.1039 3.92396 17.8949 3.45596C17.1959 3.19296 16.4569 3.05196 15.7089 3.03596C14.7469 2.99296 14.4419 2.98096 11.9999 2.98096C9.55795 2.98096 9.24495 2.98096 8.28995 3.03596C7.54295 3.05196 6.80395 3.19296 6.10495 3.45596C4.89595 3.92396 3.93995 4.87996 3.47195 6.08896C3.20895 6.78796 3.06695 7.52696 3.05295 8.27396C3.00995 9.23696 2.99695 9.54196 2.99695 11.984C2.99695 14.426 2.99695 14.738 3.05295 15.694C3.06795 16.442 3.20895 17.18 3.47195 17.881C3.94095 19.089 4.89595 20.045 6.10595 20.513C6.80195 20.785 7.54095 20.939 8.29095 20.963C9.25395 21.006 9.55895 21.019 12.0009 21.019C14.4429 21.019 14.7559 21.019 15.7109 20.963C16.4579 20.948 17.1969 20.807 17.8969 20.544C19.1059 20.075 20.0609 19.119 20.5299 17.911C20.7929 17.211 20.9339 16.473 20.9489 15.724C20.9919 14.762 21.0049 14.457 21.0049 12.014C21.0029 9.57196 21.0029 9.26196 20.9469 8.30496ZM11.9939 16.602C9.43995 16.602 7.37095 14.533 7.37095 11.979C7.37095 9.42496 9.43995 7.35596 11.9939 7.35596C14.5459 7.35596 16.6169 9.42496 16.6169 11.979C16.6169 14.533 14.5459 16.602 11.9939 16.602ZM16.8009 8.26296C16.2039 8.26296 15.7229 7.78096 15.7229 7.18496C15.7229 6.58896 16.2039 6.10696 16.8009 6.10696C17.3959 6.10696 17.8779 6.58896 17.8779 7.18496C17.8779 7.78096 17.3959 8.26296 16.8009 8.26296Z" fill="#94248C"/>
<path d="M11.994 14.9821C13.6525 14.9821 14.997 13.6376 14.997 11.9791C14.997 10.3206 13.6525 8.97607 11.994 8.97607C10.3355 8.97607 8.99097 10.3206 8.99097 11.9791C8.99097 13.6376 10.3355 14.9821 11.994 14.9821Z" fill="#94248C"/>
</svg>
