<svg width="24" height="24" viewBox="0 0 24 24" fill="none" xmlns="http://www.w3.org/2000/svg">
<path d="M20 10.999H22C22 5.869 18.127 2 12.99 2V4C17.052 4 20 6.943 20 10.999Z" fill="#94248C"/>
<path d="M13 7.99988C15.103 7.99988 16 8.89688 16 10.9999H18C18 7.77488 16.225 5.99988 13 5.99988V7.99988ZM16.422 13.4429C16.023 13.0799 15.407 13.0989 15.031 13.4859L12.638 15.9469C12.062 15.8369 10.904 15.4759 9.71204 14.2869C8.52004 13.0939 8.15904 11.9329 8.05204 11.3609L10.511 8.96688C10.899 8.59088 10.917 7.97588 10.554 7.57588L6.85904 3.51288C6.49604 3.11188 5.87904 3.07388 5.46804 3.42588L3.29804 5.28688C3.12504 5.46088 3.02204 5.69088 3.00804 5.93588C2.99304 6.18588 2.70704 12.1079 7.29904 16.7019C11.305 20.7069 16.323 20.9999 17.705 20.9999C17.907 20.9999 18.031 20.9939 18.064 20.9919C18.309 20.9779 18.539 20.8749 18.712 20.7009L20.572 18.5299C20.925 18.1189 20.885 17.5029 20.486 17.1389L16.422 13.4429Z" fill="#94248C"/>
</svg>
