<svg width="24" height="24" viewBox="0 0 24 24" fill="none" xmlns="http://www.w3.org/2000/svg">
<path d="M12.043 6.9248C9.29699 6.9248 7.06399 9.1578 7.06299 11.9038C7.06199 12.8438 7.32599 13.7598 7.82399 14.5528L7.94199 14.7408L7.43899 16.5778L9.32399 16.0838L9.50499 16.1918C10.271 16.6458 11.146 16.8848 12.04 16.8848H12.041C14.785 16.8848 17.018 14.6518 17.02 11.9068C17.021 10.5758 16.503 9.3248 15.564 8.3848C14.622 7.4428 13.372 6.9248 12.043 6.9248ZM14.971 14.0428C14.846 14.3928 14.248 14.7108 13.961 14.7538C13.703 14.7928 13.376 14.8088 13.018 14.6948C12.801 14.6268 12.523 14.5338 12.165 14.3798C10.663 13.7318 9.68299 12.2208 9.60699 12.1198C9.53299 12.0198 8.99699 11.3078 8.99699 10.5718C8.99699 9.8348 9.38299 9.4728 9.51999 9.3228C9.65799 9.1738 9.81899 9.1368 9.91999 9.1368C10.02 9.1368 10.119 9.1378 10.207 9.1418C10.299 9.1458 10.422 9.1068 10.543 9.3988C10.668 9.6988 10.968 10.4348 11.005 10.5098C11.042 10.5838 11.067 10.6718 11.018 10.7718C10.968 10.8728 10.944 10.9338 10.868 11.0218C10.794 11.1098 10.711 11.2168 10.644 11.2848C10.569 11.3588 10.491 11.4398 10.578 11.5898C10.666 11.7388 10.966 12.2298 11.41 12.6268C11.982 13.1368 12.465 13.2938 12.614 13.3698C12.764 13.4438 12.851 13.4328 12.939 13.3318C13.026 13.2308 13.313 12.8948 13.413 12.7458C13.513 12.5958 13.612 12.6208 13.75 12.6698C13.887 12.7208 14.623 13.0818 14.772 13.1568C14.92 13.2308 15.021 13.2688 15.059 13.3318C15.095 13.3938 15.095 13.6928 14.971 14.0428Z" fill="#94248C"/>
<path d="M20 3H4C3.447 3 3 3.447 3 4V20C3 20.553 3.447 21 4 21H20C20.553 21 21 20.553 21 20V4C21 3.447 20.553 3 20 3ZM12.04 17.896H12.038C11.035 17.896 10.051 17.644 9.176 17.167L6 18L6.85 14.896C6.327 13.988 6.051 12.958 6.051 11.902C6.053 8.6 8.739 5.913 12.04 5.913C13.644 5.914 15.146 6.537 16.278 7.67C17.408 8.802 18.031 10.307 18.029 11.907C18.028 15.209 15.341 17.896 12.04 17.896Z" fill="#94248C"/>
</svg>
